<svg width="160" height="36" viewBox="0 0 160 36" fill="none" xmlns="http://www.w3.org/2000/svg">
<g clip-path="url(#clip0_348_6725)">
<path d="M25.8144 4.55038C25.3084 3.85299 24.7169 3.22114 24.0535 2.66952C23.3914 2.11919 22.6697 1.644 21.9017 1.25277C21.1304 0.861443 20.3165 0.559116 19.4761 0.351674C18.6283 0.140522 17.7576 0.0339439 16.8836 0.0343428C15.8541 0.0288011 14.8287 0.164504 13.8365 0.437617C12.8973 0.697359 11.9974 1.08137 11.1609 1.57935C10.3392 2.06988 9.58712 2.66754 8.92475 3.35641C7.86398 4.4545 7.04092 5.75728 6.50644 7.18423H11.714C11.7186 7.17564 11.7246 7.16771 11.7299 7.15977C12.1183 6.5959 12.5887 6.09258 13.1259 5.66632C13.6605 5.24318 14.2573 4.90427 14.8954 4.66144C15.5287 4.41766 16.2019 4.29259 16.881 4.29254C17.6262 4.28649 18.3673 4.4024 19.0746 4.63566C19.7307 4.85255 20.344 5.18092 20.8873 5.60617C21.4187 6.02646 21.8765 6.53131 22.2421 7.10027C22.26 7.12738 22.278 7.15581 22.2952 7.18423C22.6481 7.75132 22.9126 8.3683 23.0796 9.01418H5.98595C5.84068 9.75468 5.7681 10.5075 5.76924 11.2619C5.76824 11.882 5.81826 12.5011 5.91881 13.113C6.0042 13.6302 6.12863 14.1403 6.29106 14.6389C6.40632 14.9932 6.5408 15.341 6.69389 15.6808C7.89547 18.3883 10.0997 20.5313 12.8487 21.6645C14.2476 22.2495 15.751 22.5473 17.2685 22.5398C18.707 22.5398 20.0276 22.2936 21.2303 21.8013C22.4393 21.3058 23.5612 20.622 24.554 19.7757C24.9914 19.4548 25.2101 19.1342 25.2101 18.8138C25.2086 18.6823 25.176 18.553 25.1151 18.4363C25.03 18.2777 24.9289 18.1282 24.8133 17.99C24.6743 17.8175 24.4969 17.6066 24.2815 17.3547C24.0661 17.1028 23.7976 16.7882 23.4838 16.41C23.3797 16.2699 23.2472 16.153 23.0949 16.0669C22.987 16.0049 22.8658 15.9696 22.7413 15.9637C22.6006 15.964 22.4626 16.0026 22.3424 16.0755C22.1996 16.1618 22.066 16.2624 21.9436 16.3756C21.9413 16.3753 21.9389 16.3755 21.9366 16.3763C21.9344 16.377 21.9323 16.3783 21.9306 16.3799C21.929 16.3816 21.9277 16.3836 21.927 16.3859C21.9262 16.3881 21.926 16.3905 21.9263 16.3928C21.6385 16.6503 21.3294 16.8831 21.0023 17.089C20.6377 17.3199 20.2535 17.5189 19.8543 17.684C19.4221 17.8617 18.9744 17.9997 18.5169 18.0965C18.0257 18.2008 17.5248 18.2524 17.0226 18.2505C16.33 18.2485 15.6423 18.1356 14.9858 17.916C14.3061 17.6931 13.6697 17.3564 13.1039 16.9204C12.5191 16.4689 12.0145 15.9232 11.6109 15.3059C11.4708 15.0947 11.3459 14.8738 11.2374 14.6448C11.0104 14.1594 10.8486 13.6464 10.7561 13.119H26.0703C26.1427 13.119 26.2132 13.119 26.2803 13.119V5.26172C26.1387 5.02042 25.9812 4.78309 25.8144 4.55038Z" fill="#002013"/>
<path d="M23.0863 13.1177H0.61355C0.450826 13.1177 0.294766 13.0534 0.179703 12.9389C0.0646395 12.8245 0 12.6693 0 12.5075V9.62437C0 9.46253 0.0646395 9.30733 0.179703 9.19289C0.294766 9.07845 0.450826 9.01416 0.61355 9.01416H23.0863V13.1177Z" fill="#002013"/>
<path d="M46.0735 14.6793C45.4566 12.4436 45.4566 10.0839 46.0735 7.8481C46.2613 7.17818 46.502 6.52407 46.7934 5.89188C46.7841 5.86213 46.7755 5.83238 46.7655 5.8033C46.4185 4.70932 45.8581 3.69411 45.1163 2.81575C44.383 1.96214 43.47 1.2792 42.4421 0.815231C41.3834 0.330418 40.1746 0.0880118 38.8159 0.0880118C38.0417 0.078919 37.2697 0.171614 36.5199 0.363693C35.8881 0.527937 35.2794 0.770015 34.7079 1.0843C34.2071 1.35987 33.7455 1.70046 33.3352 2.09712C32.9723 2.44765 32.6454 2.83321 32.3593 3.24811L32.1692 1.42742C32.1128 1.16664 32.0008 0.920922 31.8408 0.706808C31.68 0.489304 31.4334 0.376254 31.099 0.376254H29.3554C29.1939 0.376254 29.023 0.380221 28.8369 0.384849C28.6508 0.389477 28.5152 0.440385 28.4228 0.532279C28.2965 0.577234 28.1635 0.691605 28.0239 0.874732C27.8843 1.05786 27.8165 1.22975 27.8165 1.38973V21.1569C27.8165 21.4888 27.9052 21.7435 28.0824 21.9211C28.2597 22.0987 28.5389 22.1869 28.92 22.1856H31.7684C31.958 22.1933 32.1449 22.1387 32.3002 22.0302C32.442 21.9237 32.5526 21.7816 32.6206 21.6183C32.6987 21.432 32.748 21.2349 32.7668 21.0339C32.7902 20.8174 32.8019 20.5998 32.802 20.3821V9.25428C32.8024 8.59742 32.9686 7.95116 33.2853 7.37475C33.5841 6.83366 33.9823 6.3531 34.4592 5.95799C34.9255 5.57238 35.4539 5.26774 36.022 5.0569C36.5478 4.8531 37.1063 4.74537 37.6706 4.73891C38.4412 4.73891 39.1204 4.8762 39.708 5.15078C40.2726 5.40929 40.7755 5.78402 41.1837 6.25021C41.5807 6.70758 41.8882 7.23472 42.0904 7.80447C42.2963 8.37455 42.4013 8.97579 42.4008 9.58153V21.0187C42.4008 21.4531 42.478 21.7565 42.6342 21.9284C42.7904 22.1003 43.0995 22.1862 43.5575 22.1862H46.1819C46.5495 22.1862 46.8326 22.0831 47.0274 21.8762C47.2222 21.6692 47.3212 21.3618 47.3212 20.9506V17.6695C46.7823 16.7281 46.3632 15.7236 46.0735 14.6793Z" fill="#002013"/>
<path d="M69.8225 0.849659C69.7343 0.71712 69.6119 0.610509 69.4682 0.540919C69.3101 0.463442 69.1418 0.408474 68.9683 0.377627C68.786 0.343249 68.6008 0.325767 68.4153 0.325401H66.687C66.5417 0.322451 66.3966 0.337102 66.2549 0.369032C66.1458 0.394166 66.0468 0.451013 65.9704 0.532328C65.8879 0.62554 65.8234 0.733127 65.7803 0.849659C65.7291 0.981881 65.6739 1.15046 65.6161 1.35607L65.3754 3.1913C64.9681 2.71836 64.5172 2.28433 64.0287 1.89487C63.5302 1.49835 62.9886 1.15862 62.414 0.882053C61.8162 0.596098 61.1881 0.377458 60.5415 0.230201C59.8506 0.0726556 59.1437 -0.00520802 58.4349 -0.00184892C57.4224 -0.00516005 56.4142 0.130544 55.439 0.401426C54.4941 0.665116 53.5868 1.04722 52.7388 1.53853C51.0605 2.50794 49.6653 3.89559 48.6906 5.56469C48.5995 5.71939 48.5131 5.87607 48.4293 6.03539C48.0602 6.74489 47.7657 7.49039 47.5505 8.26003C47.4597 8.58309 47.3843 8.91056 47.3245 9.24243C47.0839 10.5849 47.0839 11.9592 47.3245 13.3016C47.3835 13.6287 47.4581 13.9515 47.5485 14.2702C47.8112 15.2136 48.1943 16.1196 48.6886 16.9662C48.7435 17.0609 48.8002 17.1546 48.8587 17.2471C49.311 17.9722 49.8444 18.644 50.4488 19.2496C51.1304 19.9337 51.8997 20.5254 52.7368 21.0095C53.5851 21.5001 54.4929 21.8809 55.4383 22.1426C56.4135 22.4135 57.4217 22.5492 58.4343 22.5459C59.0906 22.5471 59.745 22.4753 60.3853 22.3317C61.0028 22.1937 61.6043 21.9923 62.18 21.7308C62.7347 21.4785 63.2636 21.1736 63.7595 20.8204C64.2357 20.4827 64.6835 20.1068 65.0982 19.6965L65.2013 21.1563C65.2562 21.4214 65.3648 21.6726 65.5203 21.8947C65.6648 22.0891 65.921 22.1865 66.2888 22.1869H68.4472C68.6351 22.1875 68.8227 22.1729 69.0082 22.1433C69.1741 22.1192 69.3346 22.0671 69.4828 21.9893C69.6313 21.9123 69.7542 21.7943 69.8368 21.6494C69.9193 21.5045 69.958 21.339 69.9482 21.1728V1.3402C69.9555 1.16798 69.9118 0.99742 69.8225 0.849659ZM64.5485 13.8649C64.2155 14.6648 63.735 15.3958 63.1319 16.0201C62.5294 16.6412 61.8113 17.1399 61.0174 17.4884C60.194 17.8514 59.3023 18.0358 58.4017 18.0292C57.5233 18.0382 56.6538 17.8536 55.8557 17.4884C55.0894 17.1354 54.3999 16.6366 53.8263 16.0201C53.245 15.3924 52.788 14.6612 52.4795 13.8649C51.8352 12.1959 51.8352 10.3488 52.4795 8.67983C52.7882 7.88359 53.2451 7.1524 53.8263 6.52462C54.4012 5.90733 55.0902 5.4059 55.8557 5.04769C56.6522 4.677 57.5223 4.48924 58.4017 4.49832C59.3032 4.49175 60.1955 4.67915 61.0174 5.04769C61.8105 5.40147 62.5282 5.90278 63.1319 6.52462C63.7349 7.14909 64.2153 7.88001 64.5485 8.67983C65.2389 10.34 65.2389 12.2047 64.5485 13.8649Z" fill="#002013"/>
<path d="M102.704 4.55038C102.198 3.85268 101.607 3.22079 100.943 2.66952C100.282 2.11917 99.5605 1.64397 98.7931 1.25276C98.0218 0.861441 97.2079 0.559113 96.3675 0.351672C95.5197 0.140519 94.649 0.0339414 93.775 0.0343404C92.7455 0.0288408 91.7201 0.164542 90.7279 0.437615C89.7887 0.697507 88.8888 1.08151 88.0523 1.57935C87.2307 2.07005 86.4787 2.66769 85.8162 3.35641C85.156 4.04198 84.5864 4.80843 84.1211 5.63724C83.8431 6.13333 83.6031 6.64958 83.4032 7.18158H88.6107C88.6154 7.17299 88.6213 7.16506 88.6267 7.15712C89.0152 6.59341 89.4856 6.09012 90.0226 5.66368C90.5573 5.24068 91.1541 4.90177 91.7921 4.65879C92.4254 4.41502 93.0986 4.28994 93.7777 4.2899C94.5229 4.28396 95.264 4.39988 95.9713 4.63302C96.6273 4.84972 97.2404 5.1781 97.7834 5.60352C98.3148 6.02381 98.7725 6.52866 99.1381 7.09762C99.1561 7.12473 99.1747 7.15316 99.1913 7.18158C99.5445 7.74853 99.8089 8.36556 99.9757 9.01153H82.8754C82.7303 9.75206 82.658 10.5049 82.6593 11.2593C82.6583 11.8794 82.7083 12.4985 82.8089 13.1104C82.8941 13.6276 83.0183 14.1376 83.1805 14.6362C83.2957 14.9905 83.4302 15.3383 83.5833 15.6782C84.7849 18.3856 86.9891 20.5286 89.7381 21.6618C91.137 22.2468 92.6404 22.5446 94.1579 22.5372C95.5973 22.5372 96.9179 22.291 98.1198 21.7987C99.3287 21.3031 100.451 20.6193 101.443 19.7731C101.881 19.4522 102.1 19.1316 102.1 18.8111C102.098 18.6796 102.066 18.5502 102.004 18.4337C101.919 18.2751 101.818 18.1256 101.703 17.9874C101.564 17.8149 101.386 17.604 101.171 17.3521C100.956 17.1002 100.687 16.7855 100.373 16.4074C100.269 16.2669 100.137 16.15 99.9843 16.0642C99.8764 16.0023 99.7552 15.9669 99.6307 15.9611C99.49 15.9613 99.352 16 99.2319 16.0728C99.0892 16.1594 98.9555 16.2599 98.833 16.373C98.8307 16.3726 98.8283 16.3729 98.826 16.3736C98.8238 16.3744 98.8217 16.3756 98.8201 16.3773C98.8184 16.3789 98.8171 16.381 98.8164 16.3832C98.8156 16.3855 98.8154 16.3878 98.8157 16.3902C98.5281 16.6478 98.219 16.8807 97.8917 17.0863C97.5271 17.3172 97.143 17.5163 96.7437 17.6813C96.3115 17.8591 95.8638 17.9972 95.4063 18.0938C94.9154 18.1981 94.4146 18.2498 93.9126 18.2479C93.2199 18.2459 92.5319 18.1329 91.8752 17.9134C91.1956 17.6903 90.5592 17.3536 89.9934 16.9177C89.4085 16.4663 88.9039 15.9206 88.5003 15.3033C88.3602 15.092 88.2353 14.8711 88.1268 14.6422C87.9 14.1567 87.7384 13.6437 87.6462 13.1164H102.96C103.03 13.1164 103.098 13.1164 103.163 13.1164V5.24916C103.022 5.01249 102.869 4.77956 102.704 4.55038ZM104.698 10.9056V11.7194C104.703 11.6051 104.705 11.4821 104.705 11.3512C104.706 11.2 104.704 11.0515 104.7 10.9056H104.698Z" fill="#002013"/>
<path d="M136.122 14.6791C135.505 12.4431 135.505 10.0832 136.122 7.84722C136.29 7.2487 136.5 6.66262 136.75 6.09329C136.724 5.99611 136.696 5.89959 136.666 5.80307C136.343 4.71179 135.812 3.69198 135.104 2.79833C134.409 1.93699 133.526 1.24428 132.522 0.772691C131.493 0.280385 130.298 0.0342337 128.94 0.0342337C128.167 0.0316984 127.397 0.118442 126.644 0.292725C125.94 0.453312 125.259 0.699093 124.615 1.02457C124.019 1.32679 123.47 1.71264 122.984 2.17027C122.528 2.59743 122.149 3.09893 121.862 3.65314C121.535 3.10342 121.147 2.59184 120.705 2.12796C120.283 1.68964 119.801 1.31303 119.272 1.00937C118.715 0.693942 118.115 0.460982 117.491 0.317848C116.771 0.15594 116.035 0.0778475 115.297 0.0851403C114.445 0.0851403 113.7 0.168438 113.062 0.335037C112.476 0.480013 111.913 0.702361 111.387 0.996146C110.931 1.25493 110.516 1.57706 110.152 1.95277C109.816 2.30311 109.51 2.68057 109.237 3.08128L109.047 1.42851C108.991 1.16556 108.879 0.91758 108.719 0.701294C108.558 0.482467 108.31 0.37074 107.977 0.37074H106.237C105.799 0.37074 105.434 0.442139 105.141 0.584938C104.847 0.727738 104.7 0.993941 104.7 1.38355V21.1507C104.7 21.4826 104.789 21.7373 104.966 21.9149C105.145 22.0928 105.423 22.1794 105.803 22.1794H108.652C108.789 22.1836 108.925 22.1607 109.052 22.112C109.18 22.0633 109.296 21.9898 109.394 21.8958C109.491 21.8016 109.568 21.6882 109.618 21.563C109.669 21.4378 109.693 21.3034 109.688 21.1686V9.18133C109.687 8.53365 109.835 7.8943 110.12 7.31171C110.38 6.78473 110.741 6.31319 111.183 5.92339C111.607 5.55088 112.096 5.25751 112.625 5.05733C113.132 4.86143 113.67 4.7597 114.214 4.75719C114.973 4.75719 115.629 4.89449 116.181 5.16907C116.709 5.42355 117.172 5.79274 117.537 6.24932C117.891 6.70213 118.155 7.21829 118.314 7.76986C118.481 8.3354 118.565 8.92183 118.564 9.51122V21.0205C118.564 21.4555 118.639 21.7587 118.789 21.9301C118.938 22.1014 119.243 22.188 119.704 22.188H122.343C123.091 22.188 123.464 21.7763 123.465 20.953V9.50792C123.456 8.83807 123.57 8.17227 123.802 7.5431C124.008 6.98478 124.322 6.47202 124.726 6.03379C125.116 5.61703 125.592 5.28931 126.122 5.0732C126.681 4.84661 127.279 4.7329 127.883 4.73868C128.643 4.73868 129.297 4.87311 129.843 5.14196C130.369 5.39485 130.834 5.75742 131.206 6.20502C131.573 6.65341 131.846 7.17045 132.009 7.72557C132.182 8.29881 132.27 8.89421 132.269 9.49271V21.0198C132.269 21.4548 132.346 21.758 132.502 21.9295C132.657 22.1007 132.967 22.1873 133.425 22.1873H136.05C136.418 22.1873 136.7 22.0811 136.896 21.8687C137.092 21.6562 137.189 21.3444 137.189 20.9332V17.3387C136.736 16.4938 136.379 15.6019 136.122 14.6791Z" fill="#002013"/>
<path d="M159.87 0.849638C159.782 0.717098 159.66 0.610488 159.516 0.540897C159.358 0.46342 159.189 0.408453 159.016 0.377606C158.833 0.343212 158.649 0.325729 158.463 0.325379H156.735C156.59 0.322425 156.445 0.337075 156.303 0.369011C156.194 0.394285 156.095 0.4511 156.018 0.532307C155.936 0.625363 155.871 0.733003 155.829 0.849638C155.765 1.01552 155.711 1.18455 155.665 1.35605L155.423 3.19327C155.016 2.72032 154.565 2.28629 154.077 1.89683C153.578 1.50088 153.036 1.1612 152.462 0.884013C151.864 0.598139 151.235 0.379505 150.588 0.232161C149.897 0.0745037 149.191 -0.00336169 148.482 0.000111228C147.47 -0.00314749 146.462 0.132561 145.487 0.40339C144.542 0.665815 143.634 1.04681 142.785 1.53719C141.107 2.50692 139.711 3.89447 138.736 5.56334C138.603 5.78613 138.483 6.01224 138.368 6.24429C138.048 6.8902 137.79 7.56437 137.597 8.25802C137.056 10.2252 137.056 12.301 137.597 14.2682C137.858 15.2049 138.237 16.1046 138.727 16.9456C138.731 16.9516 138.734 16.9575 138.738 16.9642C139.225 17.7967 139.817 18.5641 140.499 19.2476C141.181 19.9319 141.95 20.5237 142.787 21.0075C143.636 21.4982 144.543 21.879 145.489 22.1406C146.464 22.4115 147.472 22.5472 148.484 22.5439C149.14 22.5451 149.795 22.4733 150.435 22.3297C151.053 22.1916 151.654 21.9902 152.23 21.7288C152.785 21.4765 153.314 21.1716 153.81 20.8184C154.286 20.4808 154.733 20.1049 155.147 19.6945L155.251 21.1543C155.306 21.4194 155.415 21.6707 155.571 21.8927C155.715 22.0871 155.97 22.1849 156.339 22.1849H158.497C158.685 22.1856 158.873 22.171 159.058 22.1413C159.224 22.1171 159.385 22.065 159.533 21.9873C159.682 21.9107 159.805 21.7927 159.888 21.6478C159.971 21.5028 160.009 21.3371 159.999 21.1708V1.34018C160.005 1.16769 159.961 0.997114 159.87 0.849638ZM154.596 13.8649C154.263 14.6646 153.783 15.3955 153.18 16.0201C152.577 16.6408 151.859 17.1394 151.065 17.4884C150.242 17.8513 149.35 18.0356 148.45 18.0292C147.571 18.0381 146.701 17.8534 145.903 17.4884C145.137 17.1354 144.448 16.6366 143.874 16.0201C143.293 15.3927 142.836 14.6614 142.528 13.8649C141.884 12.1959 141.884 10.3488 142.528 8.67981C142.836 7.88335 143.293 7.15207 143.874 6.5246C144.449 5.90733 145.138 5.40589 145.903 5.04767C146.7 4.67711 147.57 4.48937 148.45 4.4983C149.351 4.49185 150.243 4.67925 151.065 5.04767C151.858 5.40197 152.576 5.90321 153.18 6.5246C153.783 7.1493 154.263 7.88018 154.596 8.67981C155.286 10.34 155.286 12.2047 154.596 13.8649Z" fill="#002013"/>
<path d="M99.9757 13.1177H77.503C77.3402 13.1177 77.1842 13.0534 77.0691 12.9389C76.9541 12.8245 76.8894 12.6693 76.8894 12.5075V9.62437C76.8894 9.46253 76.9541 9.30733 77.0691 9.19289C77.1842 9.07845 77.3402 9.01416 77.503 9.01416H99.9757V13.1177Z" fill="#002013"/>
<path d="M28.3949 27.9565C28.3934 27.9238 28.399 27.8911 28.4114 27.8608C28.4238 27.8304 28.4427 27.8031 28.4667 27.7807C28.5166 27.7357 28.5822 27.712 28.6495 27.7145H34.4652C34.5302 27.7142 34.5935 27.7356 34.6447 27.7754C34.6722 27.7972 34.6946 27.8247 34.7103 27.8559C34.7261 27.8872 34.7348 27.9215 34.7358 27.9565V28.9184C34.7377 28.9886 34.7141 29.0572 34.6693 29.1115C34.6445 29.1393 34.6136 29.1611 34.5791 29.1753C34.5445 29.1895 34.5072 29.1957 34.4699 29.1934H32.3693V35.6267C32.3701 35.6915 32.3463 35.7543 32.3029 35.8025C32.2787 35.8285 32.249 35.8488 32.2161 35.8621C32.1831 35.8753 32.1476 35.8812 32.1121 35.8792H31.0153C30.9485 35.8787 30.8845 35.8532 30.8358 35.8078C30.8098 35.7854 30.7892 35.7575 30.7753 35.7262C30.7614 35.6949 30.7546 35.6609 30.7553 35.6267V29.1934H28.6495C28.6161 29.1951 28.5828 29.19 28.5514 29.1787C28.52 29.1673 28.4912 29.1499 28.4667 29.1273C28.4411 29.0997 28.4215 29.0671 28.4091 29.0316C28.3968 28.9962 28.3919 28.9585 28.3949 28.9211V27.9565Z" fill="#002013"/>
<path d="M37.6879 27.978C37.6879 27.8017 37.769 27.7136 37.9312 27.7136H43.2604C43.2984 27.7098 43.3368 27.7151 43.3724 27.729C43.408 27.7429 43.4398 27.7651 43.4651 27.7936C43.5067 27.8513 43.5282 27.9209 43.5263 27.9919V28.9631C43.5272 29.0281 43.5034 29.0911 43.4598 29.1396C43.4328 29.1665 43.4004 29.1874 43.3646 29.2008C43.3288 29.2141 43.2905 29.2196 43.2524 29.2169H39.3178V30.8829H42.347C42.3782 30.8777 42.4101 30.8792 42.4406 30.8873C42.4711 30.8954 42.4995 30.9099 42.5238 30.9299C42.5484 30.9557 42.5671 30.9865 42.5786 31.0201C42.5901 31.0538 42.5941 31.0895 42.5903 31.1249V32.1199C42.5912 32.1828 42.5719 32.2444 42.5351 32.2957C42.5147 32.3225 42.4877 32.3436 42.4568 32.3571C42.4258 32.3706 42.392 32.3761 42.3583 32.3731H39.3178V34.369H43.392C43.495 34.369 43.5635 34.3908 43.5967 34.4351C43.6346 34.496 43.652 34.5673 43.6466 34.6387V35.6436C43.6466 35.7974 43.5655 35.8745 43.4033 35.875H37.9299C37.8681 35.8767 37.8075 35.8573 37.7584 35.8201C37.7332 35.7986 37.7136 35.7714 37.7011 35.7408C37.6886 35.7102 37.6836 35.6771 37.6866 35.6442L37.6879 27.978Z" fill="#002013"/>
<path d="M52.8027 28.3082C52.8449 28.3326 52.8823 28.3644 52.913 28.4021C52.9427 28.4397 52.9582 28.4865 52.9569 28.5343C52.956 28.5786 52.9449 28.622 52.9243 28.6613L52.3879 29.5683C52.3672 29.6036 52.3382 29.6335 52.3036 29.6555C52.2689 29.6775 52.2294 29.6909 52.1884 29.6946C52.1622 29.6939 52.1362 29.6892 52.1113 29.6807C52.0801 29.6712 52.0503 29.6574 52.0229 29.6397C51.7941 29.4762 51.5427 29.3466 51.2764 29.2549C51.0044 29.162 50.7185 29.1156 50.4309 29.1174C50.0751 29.1133 49.7225 29.1855 49.3972 29.329C49.0908 29.4652 48.8144 29.6605 48.5842 29.9035C48.3531 30.1506 48.1725 30.44 48.0525 30.7557C47.9234 31.0909 47.8587 31.4472 47.8617 31.8062C47.8589 32.1623 47.9236 32.5158 48.0525 32.8481C48.173 33.1627 48.3536 33.4512 48.5842 33.6976C48.8209 33.9478 49.1073 34.1464 49.4251 34.2808C49.743 34.4152 50.0855 34.4825 50.4309 34.4784C50.7213 34.4794 51.0099 34.433 51.2851 34.3409C51.5528 34.2506 51.8054 34.1206 52.0342 33.9554C52.0612 33.9347 52.0922 33.9199 52.1253 33.9118C52.1565 33.9045 52.1831 33.8992 52.2051 33.8953C52.2444 33.8998 52.2823 33.913 52.3159 33.9339C52.3495 33.9548 52.3779 33.983 52.3992 34.0162L52.9462 34.9345C52.9666 34.9718 52.978 35.0132 52.9795 35.0555C52.981 35.1021 52.9641 35.1475 52.9323 35.1818C52.8995 35.2162 52.8634 35.2474 52.8246 35.275C52.479 35.5058 52.1021 35.6863 51.7052 35.8112C51.2966 35.9391 50.8705 36.0031 50.4422 36.0009C50.0623 36.0021 49.6839 35.9523 49.3175 35.8528C48.9638 35.7564 48.6245 35.6139 48.3084 35.429C47.6838 35.0635 47.1628 34.5462 46.7941 33.9257C46.608 33.6123 46.4647 33.2757 46.368 32.9248C46.218 32.3831 46.1785 31.817 46.2516 31.2599C46.3248 30.7028 46.5093 30.1659 46.7941 29.6807C46.9769 29.3691 47.1987 29.0819 47.4542 28.8259C47.709 28.5708 47.9961 28.3499 48.3084 28.1687C48.6253 27.9857 48.9644 27.8436 49.3175 27.7456C50.0961 27.5331 50.9195 27.5445 51.6919 27.7787C52.0857 27.9014 52.4598 28.0797 52.8027 28.3082Z" fill="#002013"/>
<path d="M56.119 27.9561C56.1196 27.8939 56.1433 27.8341 56.1855 27.7882C56.2069 27.7636 56.2336 27.7441 56.2637 27.7313C56.2937 27.7185 56.3263 27.7126 56.359 27.7141H57.4605C57.5263 27.7153 57.5892 27.7408 57.6373 27.7855C57.663 27.806 57.6838 27.8319 57.6981 27.8614C57.7123 27.891 57.7197 27.9233 57.7197 27.9561V30.8041H61.4289V27.9561C61.4281 27.8928 61.4519 27.8317 61.4954 27.7855C61.5179 27.7617 61.5452 27.743 61.5756 27.7307C61.606 27.7183 61.6388 27.7127 61.6716 27.7141H62.7571C62.8263 27.7135 62.8935 27.7368 62.9472 27.7802C62.9733 27.8008 62.9941 27.8272 63.008 27.8573C63.0219 27.8874 63.0284 27.9203 63.027 27.9534V35.6395C63.027 35.8008 62.9405 35.8814 62.7677 35.8814H61.6716C61.5098 35.8814 61.4289 35.8008 61.4289 35.6395V32.3134H57.7197V35.6395C57.7197 35.8008 57.6297 35.8814 57.4498 35.8814H56.359C56.2008 35.8814 56.1217 35.8067 56.1217 35.656L56.119 27.9561Z" fill="#002013"/>
<path d="M66.479 27.9615C66.4779 27.8966 66.5017 27.8338 66.5454 27.7857C66.5682 27.7614 66.5961 27.7424 66.6272 27.73C66.6582 27.7177 66.6916 27.7123 66.7249 27.7143H67.9966C68.0477 27.7141 68.0981 27.7264 68.1435 27.75C68.1933 27.7774 68.2359 27.8161 68.2678 27.863C68.8979 28.7577 69.5226 29.6456 70.1417 30.5266C70.7607 31.4077 71.3854 32.2955 72.0156 33.1902V27.9232C72.0236 27.8635 72.0531 27.8088 72.0986 27.7691C72.1437 27.7324 72.2006 27.7129 72.2588 27.7143H73.3224C73.392 27.7126 73.4597 27.7361 73.5132 27.7804C73.5395 27.8014 73.5604 27.8283 73.5744 27.8588C73.5884 27.8893 73.595 27.9227 73.5936 27.9562V35.6515C73.5936 35.8023 73.5072 35.877 73.3337 35.877H72.1372C72.0561 35.877 71.981 35.8274 71.9105 35.7289C71.2617 34.7941 70.6158 33.8601 69.9728 32.9271C69.3298 31.9941 68.6859 31.0586 68.0411 30.1207V35.635C68.0463 35.7009 68.0253 35.7661 67.9826 35.8168C67.9551 35.8397 67.9233 35.8568 67.8891 35.8671C67.8548 35.8775 67.8188 35.8808 67.7832 35.877H66.7196C66.6859 35.8795 66.652 35.8749 66.6201 35.8635C66.5883 35.8521 66.5592 35.8342 66.5348 35.8109C66.4938 35.7626 66.4729 35.7007 66.4763 35.6376L66.479 27.9615Z" fill="#002013"/>
<path d="M76.7119 31.8051C76.7101 31.0592 76.9086 30.3263 77.2869 29.6823C77.4706 29.3719 77.6926 29.0857 77.9477 28.8301C78.2021 28.5749 78.4894 28.3541 78.8019 28.1736C79.1188 27.9904 79.4579 27.848 79.8109 27.7498C80.5453 27.5489 81.3207 27.5489 82.0551 27.7498C82.4081 27.848 82.7472 27.9904 83.0641 28.1736C83.6925 28.5378 84.2153 29.0575 84.5817 29.6823C84.7659 29.9984 84.9088 30.3365 85.0072 30.6885C85.1098 31.0543 85.161 31.4325 85.1594 31.8124C85.1611 32.1896 85.1098 32.5652 85.0072 32.9283C84.9083 33.2784 84.7654 33.6147 84.5817 33.9292C84.3998 34.2399 84.1777 34.5256 83.921 34.7788C83.3893 35.3003 82.7295 35.674 82.0072 35.8626C81.285 36.0512 80.5256 36.0482 79.8049 35.8537C78.7452 35.5608 77.8414 34.8698 77.2843 33.9266C76.9072 33.2833 76.7096 32.5516 76.7119 31.8071V31.8051ZM78.3073 31.7938C78.3039 32.15 78.3717 32.5032 78.5067 32.8331C78.6352 33.1461 78.8229 33.4316 79.0598 33.674C79.2968 33.9146 79.5785 34.107 79.8894 34.2406C80.2164 34.3785 80.5679 34.4495 80.923 34.4495C81.2782 34.4495 81.6297 34.3785 81.9567 34.2406C82.2679 34.1063 82.5504 33.914 82.7889 33.674C83.027 33.4322 83.2156 33.1466 83.344 32.8331C83.6132 32.1679 83.6132 31.425 83.344 30.7599C83.086 30.1261 82.5877 29.6186 81.9567 29.3471C81.6297 29.2092 81.2782 29.1382 80.923 29.1382C80.5679 29.1382 80.2164 29.2092 79.8894 29.3471C79.5782 29.4812 79.2963 29.6746 79.0598 29.9163C78.5716 30.4203 78.3009 31.0941 78.3053 31.7938H78.3073Z" fill="#002013"/>
<path d="M88.277 27.9563C88.2761 27.893 88.3 27.8319 88.3435 27.7858C88.3677 27.7612 88.397 27.7421 88.4294 27.7297C88.4617 27.7174 88.4964 27.7122 88.5309 27.7143H89.6271C89.6912 27.7142 89.753 27.7377 89.8006 27.7805C89.8257 27.8027 89.8455 27.8303 89.8584 27.8612C89.8713 27.8921 89.877 27.9255 89.875 27.959V34.3757H93.3356C93.3672 34.3749 93.3986 34.3803 93.4281 34.3916C93.4575 34.403 93.4844 34.42 93.5071 34.4418C93.5313 34.4659 93.5502 34.4947 93.5626 34.5265C93.5749 34.5583 93.5805 34.5922 93.5789 34.6262V35.6324C93.5798 35.6965 93.556 35.7585 93.5125 35.8057C93.4903 35.8302 93.463 35.8497 93.4324 35.8625C93.4018 35.8753 93.3688 35.8812 93.3356 35.8797H88.5196C88.3579 35.8797 88.277 35.799 88.277 35.6377V27.9563Z" fill="#002013"/>
<path d="M96.0279 31.8051C96.026 31.0592 96.2245 30.3263 96.6028 29.6823C96.7865 29.3719 97.0085 29.0857 97.2636 28.8301C97.5181 28.5749 97.8053 28.3541 98.1178 28.1736C98.4347 27.9904 98.7738 27.848 99.1268 27.7498C99.8612 27.5489 100.637 27.5489 101.371 27.7498C101.724 27.848 102.063 27.9904 102.38 28.1736C102.693 28.3546 102.981 28.5753 103.237 28.8301C103.493 29.0848 103.715 29.3712 103.898 29.6823C104.082 29.9984 104.225 30.3365 104.323 30.6885C104.426 31.0543 104.477 31.4325 104.475 31.8124C104.477 32.1896 104.426 32.5652 104.323 32.9283C104.224 33.2784 104.081 33.6147 103.898 33.9292C103.716 34.2398 103.493 34.5254 103.237 34.7788C102.705 35.3003 102.045 35.674 101.323 35.8626C100.601 36.0512 99.8415 36.0482 99.1209 35.8537C98.23 35.6106 97.4444 35.0826 96.8854 34.3512C96.3264 33.6199 96.025 32.7258 96.0279 31.8071V31.8051ZM97.6232 31.7938C97.6199 32.15 97.6876 32.5032 97.8226 32.8331C97.9511 33.1461 98.1389 33.4316 98.3757 33.674C98.6126 33.9144 98.8941 34.1068 99.2046 34.2406C99.5317 34.3785 99.8834 34.4495 100.239 34.4495C100.594 34.4495 100.946 34.3785 101.273 34.2406C101.584 34.1065 101.866 33.9142 102.104 33.674C102.343 33.4324 102.531 33.1467 102.66 32.8331C102.929 32.1679 102.929 31.425 102.66 30.7599C102.401 30.1264 101.903 29.6191 101.273 29.3471C100.946 29.2092 100.594 29.1381 100.239 29.1381C99.8834 29.1381 99.5317 29.2092 99.2046 29.3471C98.8937 29.4813 98.6121 29.6747 98.3757 29.9163C97.8875 30.4203 97.6168 31.0941 97.6212 31.7938H97.6232Z" fill="#002013"/>
<path d="M112.69 32.4651C112.687 32.4007 112.709 32.3375 112.751 32.2886C112.775 32.2654 112.804 32.2475 112.835 32.2361C112.867 32.2247 112.9 32.2201 112.933 32.2225H113.835C113.9 32.2235 113.962 32.2469 114.012 32.2886C114.038 32.3095 114.06 32.3363 114.074 32.367C114.089 32.3977 114.096 32.4313 114.095 32.4651V34.9906C114.094 35.0348 114.083 35.0782 114.061 35.1169C114.031 35.1649 113.989 35.2046 113.94 35.2325C113.936 35.2325 113.934 35.2325 113.934 35.2325C113.934 35.2325 113.934 35.2325 113.929 35.2325C113.752 35.3558 113.565 35.4644 113.37 35.5571C113.169 35.6534 112.96 35.7335 112.745 35.7965C112.526 35.8608 112.303 35.9103 112.077 35.9446C111.85 35.9794 111.621 35.9968 111.391 35.9968C111.012 35.9977 110.635 35.9479 110.269 35.8487C109.915 35.753 109.576 35.6105 109.26 35.4249C108.637 35.0581 108.117 34.541 107.748 33.9216C107.562 33.6082 107.419 33.2716 107.322 32.9206C107.173 32.3804 107.133 31.8158 107.206 31.2601C107.279 30.7045 107.463 30.169 107.748 29.6852C107.931 29.3748 108.153 29.0885 108.409 28.833C108.663 28.5769 108.95 28.3547 109.263 28.1719C109.579 27.9873 109.918 27.844 110.272 27.7455C110.638 27.644 111.016 27.5933 111.397 27.5948C111.659 27.594 111.921 27.6162 112.179 27.6609C112.436 27.7065 112.689 27.7755 112.933 27.8671C113.026 27.9042 113.135 27.95 113.262 28.0046C113.387 28.0582 113.508 28.1189 113.625 28.1864C113.728 28.2445 113.825 28.3125 113.915 28.3894C113.948 28.413 113.976 28.4433 113.996 28.4785C114.017 28.5136 114.029 28.5526 114.034 28.593C114.027 28.6427 114.01 28.6904 113.984 28.7332C113.95 28.7993 113.909 28.87 113.859 28.9507C113.81 29.0313 113.754 29.1146 113.691 29.2006C113.627 29.2865 113.568 29.3645 113.508 29.434C113.449 29.5034 113.396 29.5616 113.348 29.6078C113.32 29.6414 113.281 29.6647 113.238 29.6739C113.211 29.6734 113.183 29.669 113.157 29.6607C113.122 29.6495 113.089 29.6317 113.06 29.6085C112.819 29.4427 112.555 29.313 112.275 29.2237C111.989 29.1287 111.688 29.0802 111.386 29.0803C111.025 29.0761 110.668 29.1463 110.336 29.2864C110.005 29.4264 109.706 29.6334 109.458 29.8941C108.973 30.4101 108.705 31.0905 108.706 31.7968C108.704 32.1584 108.776 32.5166 108.919 32.8492C109.055 33.169 109.25 33.4605 109.494 33.7087C109.737 33.9532 110.025 34.1492 110.343 34.2858C110.669 34.4271 111.021 34.4992 111.377 34.4974C111.512 34.4976 111.647 34.4874 111.78 34.467C111.906 34.4485 112.03 34.4229 112.153 34.3903C112.259 34.3625 112.364 34.3276 112.465 34.2858C112.544 34.2544 112.62 34.2165 112.692 34.1728L112.69 32.4651Z" fill="#002013"/>
<path d="M117.472 27.9564C117.471 27.8941 117.492 27.8335 117.533 27.7859C117.556 27.7612 117.584 27.7419 117.615 27.7295C117.647 27.7172 117.681 27.712 117.714 27.7145H118.811C118.876 27.7152 118.938 27.7386 118.987 27.7806C119.014 27.8013 119.035 27.828 119.05 27.8586C119.064 27.8892 119.071 27.9227 119.07 27.9564V35.6372C119.07 35.7985 118.983 35.8791 118.811 35.8791H117.714C117.552 35.8791 117.472 35.7985 117.472 35.6372V27.9564Z" fill="#002013"/>
<path d="M122.525 27.978C122.525 27.8017 122.606 27.7135 122.768 27.7135H128.097C128.135 27.7098 128.174 27.7152 128.209 27.7291C128.245 27.743 128.277 27.7651 128.302 27.7935C128.343 27.8513 128.365 27.921 128.362 27.9919V28.963C128.364 29.0281 128.34 29.0913 128.296 29.1396C128.269 29.1666 128.237 29.1876 128.201 29.201C128.166 29.2143 128.127 29.2198 128.089 29.2169H124.158V30.8829H127.188C127.219 30.8777 127.251 30.8792 127.281 30.8873C127.312 30.8954 127.34 30.9099 127.365 30.9298C127.389 30.9556 127.408 30.9864 127.419 31.0201C127.431 31.0538 127.435 31.0895 127.431 31.1249V32.1198C127.432 32.1828 127.413 32.2444 127.376 32.2957C127.355 32.3222 127.328 32.3431 127.297 32.3566C127.267 32.3702 127.233 32.3758 127.199 32.373H124.158V34.3689H128.233C128.336 34.3689 128.404 34.3907 128.437 34.435C128.475 34.496 128.492 34.5672 128.487 34.6387V35.6435C128.487 35.7974 128.406 35.8745 128.244 35.8749H122.771C122.709 35.8767 122.648 35.8573 122.599 35.8201C122.574 35.7985 122.554 35.7714 122.542 35.7408C122.529 35.7102 122.524 35.6771 122.527 35.6442L122.525 27.978Z" fill="#002013"/>
<path d="M136.135 29.8913C136.088 29.892 136.042 29.8797 136.002 29.8556C135.954 29.8267 135.908 29.7947 135.864 29.7597L135.853 29.7544C135.768 29.6715 135.677 29.5942 135.582 29.523C135.465 29.435 135.341 29.3561 135.212 29.287C135.071 29.212 134.924 29.1494 134.772 29.0999C134.618 29.0489 134.456 29.023 134.294 29.0232C134.109 29.0196 133.925 29.0419 133.747 29.0893C133.604 29.1279 133.469 29.1912 133.348 29.2764C133.247 29.3491 133.163 29.4441 133.105 29.5541C133.05 29.6595 133.021 29.7765 133.022 29.8952C133.02 30.0218 133.064 30.1449 133.146 30.2417C133.241 30.35 133.356 30.4396 133.484 30.5061C133.641 30.5897 133.804 30.6604 133.973 30.7176C134.157 30.7816 134.351 30.8448 134.553 30.9074C134.785 30.977 135.016 31.0522 135.244 31.1328C135.467 31.2112 135.686 31.3021 135.899 31.4052C136.102 31.5023 136.297 31.6144 136.482 31.7404C136.657 31.8585 136.814 32.001 136.948 32.1635C137.079 32.3239 137.183 32.504 137.257 32.697C137.335 32.9087 137.373 33.1327 137.37 33.3581C137.376 33.7333 137.293 34.1045 137.127 34.4417C136.966 34.7626 136.737 35.0449 136.456 35.2687C136.156 35.5056 135.815 35.685 135.449 35.7976C135.048 35.9225 134.629 35.9845 134.208 35.9814C133.923 35.9812 133.64 35.9481 133.363 35.8829C133.085 35.8174 132.814 35.7233 132.556 35.6019C132.298 35.481 132.053 35.3346 131.824 35.1649C131.597 34.9977 131.39 34.8049 131.208 34.5904V34.5957L131.197 34.5739C131.127 34.5072 131.084 34.4174 131.075 34.3214C131.075 34.2804 131.087 34.2403 131.109 34.2057C131.137 34.1617 131.17 34.1211 131.208 34.0847L131.39 33.9035C131.446 33.8559 131.505 33.8024 131.567 33.7435C131.627 33.6872 131.69 33.6341 131.755 33.5842C131.818 33.5366 131.876 33.4963 131.929 33.4632C131.968 33.435 132.014 33.4179 132.062 33.4137C132.115 33.4137 132.165 33.4312 132.206 33.4632C132.245 33.4918 132.282 33.5232 132.317 33.5571L132.339 33.5789H132.334C132.469 33.705 132.614 33.8208 132.767 33.9253C132.926 34.034 133.091 34.1322 133.262 34.2195C133.424 34.3027 133.594 34.3708 133.768 34.4232C133.921 34.4701 134.081 34.495 134.241 34.4972C134.433 34.4986 134.625 34.4726 134.81 34.4199C134.974 34.3746 135.13 34.3013 135.269 34.203C135.393 34.1141 135.497 33.9993 135.572 33.8665C135.646 33.7319 135.684 33.5804 135.682 33.4269C135.685 33.2759 135.635 33.1286 135.538 33.0117C135.433 32.8886 135.306 32.7862 135.163 32.7096C134.997 32.6182 134.821 32.5436 134.64 32.4868C134.447 32.4246 134.253 32.366 134.057 32.3109C133.653 32.1926 133.259 32.0456 132.877 31.8713C132.572 31.7349 132.288 31.5569 132.033 31.3424C131.819 31.1603 131.647 30.9349 131.528 30.6813C131.412 30.4229 131.355 30.1424 131.359 29.8595C131.354 29.5414 131.423 29.2264 131.562 28.9395C131.7 28.6526 131.904 28.4017 132.157 28.2068C132.432 27.9968 132.743 27.8386 133.075 27.74C133.464 27.6236 133.868 27.567 134.275 27.5721C134.621 27.5738 134.966 27.6266 135.297 27.7288C135.635 27.8297 135.959 27.9748 136.259 28.1605C136.348 28.2151 136.438 28.2775 136.53 28.3476C136.622 28.4137 136.707 28.4877 136.784 28.5591C136.854 28.6224 136.918 28.6924 136.975 28.768C137.015 28.8079 137.04 28.8595 137.048 28.9151C137.055 28.9707 137.044 29.0272 137.017 29.0761C136.995 29.1209 136.967 29.1625 136.934 29.1997L136.767 29.3756V29.371L136.597 29.5528C136.541 29.612 136.481 29.6681 136.419 29.7207C136.361 29.7696 136.307 29.8113 136.259 29.8443C136.223 29.8719 136.18 29.8882 136.135 29.8913Z" fill="#002013"/>
</g>
<defs>
<clipPath id="clip0_348_6725">
<rect width="160" height="36" fill="white"/>
</clipPath>
</defs>
</svg>
