<svg width="120" height="27" viewBox="0 0 120 27" fill="none" xmlns="http://www.w3.org/2000/svg">
<g clip-path="url(#clip0_97_985)">
<path d="M19.3608 3.41278C18.9813 2.88974 18.5376 2.41586 18.0401 2.00214C17.5435 1.58939 17.0023 1.233 16.4263 0.939574C15.8478 0.646082 15.2374 0.419337 14.6071 0.263756C13.9712 0.105391 13.3182 0.0254579 12.6627 0.0257571C11.8906 0.0216009 11.1215 0.123378 10.3773 0.328213C9.67292 0.523019 8.998 0.811028 8.37067 1.18451C7.75437 1.55241 7.19033 2.00065 6.69354 2.51731C5.89797 3.34087 5.28068 4.31796 4.87981 5.38817H8.78547C8.78896 5.38173 8.79344 5.37578 8.79743 5.36983C9.08868 4.94693 9.44152 4.56944 9.84439 4.24974C10.2453 3.93239 10.6929 3.6782 11.1715 3.49608C11.6465 3.31325 12.1514 3.21945 12.6607 3.21941C13.2196 3.21486 13.7754 3.3018 14.3059 3.47674C14.798 3.63942 15.258 3.88569 15.6655 4.20462C16.064 4.51984 16.4073 4.89848 16.6815 5.3252C16.695 5.34553 16.7085 5.36685 16.7214 5.38817C16.9861 5.81349 17.1844 6.27622 17.3097 6.76063H4.48944C4.38049 7.31601 4.32606 7.88061 4.32692 8.44646C4.32616 8.9115 4.36368 9.37583 4.43909 9.83479C4.50313 10.2227 4.59646 10.6052 4.71828 10.9792C4.80473 11.2449 4.90558 11.5057 5.0204 11.7606C5.92159 13.7912 7.57479 15.3985 9.6365 16.2484C10.6857 16.6872 11.8132 16.9105 12.9514 16.9049C14.0302 16.9049 15.0207 16.7202 15.9227 16.351C16.8294 15.9793 17.6709 15.4665 18.4155 14.8318C18.7435 14.5911 18.9076 14.3507 18.9076 14.1103C18.9064 14.0117 18.882 13.9147 18.8363 13.8272C18.7725 13.7083 18.6966 13.5961 18.6099 13.4925C18.5057 13.3631 18.3726 13.205 18.2111 13.016C18.0496 12.8271 17.8482 12.5911 17.6128 12.3075C17.5348 12.2024 17.4354 12.1147 17.3212 12.0502C17.2402 12.0037 17.1493 11.9772 17.0559 11.9728C16.9504 11.973 16.8469 12.002 16.7568 12.0566C16.6497 12.1214 16.5495 12.1968 16.4577 12.2817C16.4559 12.2815 16.4541 12.2816 16.4524 12.2822C16.4508 12.2828 16.4492 12.2837 16.448 12.2849C16.4467 12.2862 16.4458 12.2877 16.4452 12.2894C16.4446 12.2911 16.4445 12.2929 16.4447 12.2946C16.2289 12.4877 15.9971 12.6623 15.7517 12.8167C15.4782 12.9899 15.1901 13.1392 14.8907 13.263C14.5665 13.3962 14.2308 13.4998 13.8876 13.5724C13.5193 13.6506 13.1436 13.6893 12.7669 13.6879C12.2475 13.6864 11.7317 13.6017 11.2393 13.437C10.7296 13.2698 10.2522 13.0173 9.82794 12.6903C9.38932 12.3517 9.01083 11.9424 8.70819 11.4795C8.60306 11.321 8.50943 11.1553 8.42801 10.9836C8.25777 10.6196 8.13641 10.2348 8.06705 9.83925H19.5527C19.607 9.83925 19.6599 9.83925 19.7102 9.83925V3.94629C19.604 3.76531 19.4859 3.58732 19.3608 3.41278Z" fill="#F5F5F5"/>
<path d="M17.3147 9.83825H0.460163C0.33812 9.83825 0.221074 9.79003 0.134777 9.70421C0.0484796 9.61838 0 9.50197 0 9.3806V7.21828C0 7.0969 0.0484796 6.98049 0.134777 6.89467C0.221074 6.80884 0.33812 6.76062 0.460163 6.76062H17.3147V9.83825Z" fill="#F5F5F5"/>
<path d="M34.5552 11.0094C34.0925 9.33257 34.0925 7.56277 34.5552 5.88595C34.696 5.38351 34.8765 4.89293 35.0951 4.41879C35.0881 4.39648 35.0816 4.37417 35.0742 4.35235C34.8139 3.53187 34.3936 2.77046 33.8372 2.11169C33.2873 1.47148 32.6026 0.959275 31.8316 0.611301C31.0375 0.247692 30.131 0.0658867 29.112 0.0658867C28.5313 0.0590672 27.9523 0.128589 27.39 0.272648C26.9161 0.395831 26.4595 0.577389 26.0309 0.813105C25.6554 1.01978 25.3092 1.27522 25.0014 1.57272C24.7293 1.83562 24.4841 2.12479 24.2695 2.43596L24.1269 1.07044C24.0846 0.87486 24.0006 0.690569 23.8807 0.529984C23.76 0.366856 23.575 0.282068 23.3243 0.282068H22.0166C21.8954 0.282068 21.7673 0.285044 21.6277 0.288515C21.4881 0.291985 21.3864 0.330166 21.3171 0.399087C21.2224 0.432804 21.1227 0.518582 21.018 0.655927C20.9133 0.793273 20.8624 0.922188 20.8624 1.04218V15.8675C20.8624 16.1164 20.9289 16.3075 21.0618 16.4407C21.1948 16.5739 21.4042 16.64 21.69 16.6391H23.8263C23.9685 16.6448 24.1087 16.6039 24.2252 16.5225C24.3315 16.4427 24.4145 16.336 24.4655 16.2136C24.5241 16.0739 24.5611 15.9261 24.5751 15.7753C24.5927 15.6129 24.6015 15.4497 24.6016 15.2864V6.94059C24.6019 6.44794 24.7265 5.96325 24.964 5.53094C25.1881 5.12512 25.4868 4.7647 25.8445 4.46837C26.1942 4.17916 26.5904 3.95068 27.0166 3.79255C27.4109 3.6397 27.8298 3.55891 28.253 3.55406C28.831 3.55406 29.3403 3.65703 29.781 3.86296C30.2045 4.05685 30.5817 4.3379 30.8878 4.68753C31.1855 5.03056 31.4162 5.42592 31.5678 5.85323C31.7222 6.28079 31.801 6.73172 31.8007 7.18603V15.7639C31.8007 16.0897 31.8585 16.3173 31.9757 16.4462C32.0928 16.5751 32.3246 16.6395 32.6681 16.6395H34.6364C34.9121 16.6395 35.1245 16.5622 35.2706 16.407C35.4167 16.2518 35.4909 16.0212 35.4909 15.7128V13.252C35.0868 12.5459 34.7724 11.7926 34.5552 11.0094Z" fill="#F5F5F5"/>
<path d="M52.3669 0.637122C52.3007 0.537718 52.2089 0.45776 52.1012 0.405567C51.9826 0.34746 51.8564 0.306234 51.7262 0.283098C51.5895 0.257315 51.4506 0.244203 51.3114 0.243928H50.0152C49.9063 0.241716 49.7974 0.252704 49.6912 0.276652C49.6094 0.295502 49.5351 0.338138 49.4778 0.399124C49.4159 0.469033 49.3676 0.549723 49.3352 0.637122C49.2968 0.736289 49.2554 0.862724 49.212 1.01693L49.0316 2.39336C48.7261 2.03865 48.3879 1.71313 48.0215 1.42103C47.6476 1.12364 47.2414 0.868844 46.8105 0.661418C46.3621 0.446951 45.8911 0.282972 45.4061 0.172529C44.8879 0.0543696 44.3578 -0.00402809 43.8262 -0.00150876C43.0668 -0.00399211 42.3106 0.0977862 41.5792 0.300947C40.8706 0.498715 40.1901 0.78529 39.5541 1.15378C38.2954 1.88083 37.249 2.92157 36.5179 4.17339C36.4496 4.28942 36.3848 4.40693 36.322 4.52642C36.0451 5.05855 35.8243 5.61767 35.6629 6.1949C35.5948 6.43719 35.5383 6.6828 35.4934 6.9317C35.3129 7.93857 35.3129 8.96924 35.4934 9.97611C35.5376 10.2214 35.5936 10.4635 35.6614 10.7025C35.8584 11.41 36.1458 12.0896 36.5164 12.7245C36.5576 12.7956 36.6002 12.8658 36.644 12.9352C36.9832 13.479 37.3833 13.9829 37.8366 14.4371C38.3478 14.9501 38.9248 15.3939 39.5526 15.757C40.1888 16.125 40.8697 16.4106 41.5787 16.6069C42.3101 16.81 43.0663 16.9118 43.8257 16.9093C44.3179 16.9102 44.8087 16.8563 45.2889 16.7487C45.7521 16.6451 46.2032 16.4941 46.635 16.298C47.051 16.1087 47.4477 15.8801 47.8196 15.6152C48.1768 15.3619 48.5126 15.08 48.8237 14.7723L48.9009 15.8671C48.9422 16.0659 49.0236 16.2543 49.1403 16.4209C49.2486 16.5667 49.4407 16.6397 49.7166 16.6401H51.3354C51.4763 16.6405 51.617 16.6296 51.7562 16.6074C51.8806 16.5893 52.001 16.5502 52.1121 16.4918C52.2235 16.4341 52.3157 16.3456 52.3776 16.2369C52.4395 16.1283 52.4685 16.0041 52.4611 15.8795V1.00503C52.4666 0.875864 52.4338 0.747943 52.3669 0.637122ZM48.4114 10.3986C48.1616 10.9985 47.8013 11.5467 47.349 12.015C46.8971 12.4808 46.3584 12.8548 45.7631 13.1162C45.1455 13.3885 44.4767 13.5267 43.8013 13.5218C43.1425 13.5286 42.4903 13.3901 41.8918 13.1162C41.317 12.8514 40.8 12.4773 40.3697 12.015C39.9337 11.5442 39.591 10.9958 39.3597 10.3986C38.8764 9.14683 38.8764 7.76147 39.3597 6.50975C39.5911 5.91257 39.9338 5.36418 40.3697 4.89334C40.8009 4.43038 41.3177 4.0543 41.8918 3.78565C42.4892 3.50762 43.1418 3.36681 43.8013 3.37362C44.4774 3.36869 45.1466 3.50924 45.7631 3.78565C46.3578 4.05098 46.8961 4.42696 47.349 4.89334C47.8011 5.3617 48.1615 5.90989 48.4114 6.50975C48.9292 7.75487 48.9292 9.15343 48.4114 10.3986Z" fill="#F5F5F5"/>
<path d="M77.0277 3.41278C76.6486 2.88951 76.2049 2.41559 75.7071 2.00214C75.2111 1.58938 74.6703 1.23298 74.0948 0.939572C73.5162 0.64608 72.9059 0.419335 72.2755 0.263754C71.6397 0.105389 70.9867 0.0254561 70.3312 0.0257553C69.559 0.0216306 68.79 0.123407 68.0458 0.328211C67.3414 0.52313 66.6665 0.811133 66.0391 1.18451C65.4229 1.55254 64.8589 2.00077 64.362 2.51731C63.8669 3.03149 63.4397 3.60632 63.0907 4.22793C62.8822 4.6 62.7022 4.98718 62.5523 5.38619H66.4579C66.4614 5.37974 66.4659 5.37379 66.4699 5.36784C66.7613 4.94506 67.1141 4.56759 67.5169 4.24776C67.9179 3.93051 68.3655 3.67633 68.844 3.49409C69.319 3.31126 69.8239 3.21746 70.3332 3.21742C70.8921 3.21297 71.4479 3.29991 71.9784 3.47476C72.4704 3.63729 72.9302 3.88358 73.3375 4.20264C73.736 4.51785 74.0793 4.8965 74.3535 5.32322C74.367 5.34354 74.3809 5.36487 74.3934 5.38619C74.6583 5.8114 74.8566 6.27417 74.9817 6.75865H62.1564C62.0476 7.31405 61.9934 7.87864 61.9944 8.44448C61.9936 8.90952 62.0312 9.37385 62.1066 9.83281C62.1704 10.2207 62.2636 10.6032 62.3853 10.9772C62.4717 11.2429 62.5726 11.5038 62.6874 11.7586C63.5886 13.7892 65.2418 15.3965 67.3035 16.2464C68.3527 16.6851 69.4802 16.9084 70.6184 16.9029C71.6979 16.9029 72.6883 16.7182 73.5897 16.349C74.4964 15.9773 75.3379 15.4645 76.0825 14.8298C76.4105 14.5891 76.5746 14.3487 76.5746 14.1084C76.5737 14.0097 76.5492 13.9127 76.5033 13.8252C76.4395 13.7063 76.3636 13.5942 76.2769 13.4906C76.1732 13.3611 76.0396 13.203 75.8781 13.0141C75.7165 12.8251 75.5151 12.5891 75.2798 12.3055C75.202 12.2002 75.1026 12.1125 74.9882 12.0482C74.9072 12.0017 74.8163 11.9752 74.7229 11.9708C74.6174 11.971 74.5139 12 74.4238 12.0546C74.3168 12.1195 74.2166 12.1949 74.1247 12.2797C74.1229 12.2795 74.1211 12.2796 74.1194 12.2802C74.1177 12.2808 74.1162 12.2817 74.115 12.283C74.1137 12.2842 74.1128 12.2857 74.1122 12.2874C74.1116 12.2891 74.1115 12.2909 74.1117 12.2926C73.896 12.4858 73.6641 12.6605 73.4187 12.8147C73.1452 12.9879 72.8571 13.1372 72.5577 13.261C72.2335 13.3943 71.8978 13.4979 71.5546 13.5704C71.1864 13.6486 70.8109 13.6873 70.4344 13.6859C69.9148 13.6844 69.3988 13.5997 68.9063 13.435C68.3966 13.2677 67.9193 13.0152 67.4949 12.6883C67.0563 12.3497 66.6778 11.9404 66.3752 11.4775C66.27 11.319 66.1764 11.1533 66.095 10.9816C65.9249 10.6175 65.8037 10.2328 65.7345 9.83727H77.2197C77.2725 9.83727 77.3234 9.83727 77.3722 9.83727V3.93687C77.2662 3.75937 77.1514 3.58467 77.0277 3.41278ZM78.5234 8.1792V8.78957C78.5269 8.7038 78.5284 8.61157 78.5284 8.5134C78.5294 8.40002 78.5282 8.28862 78.5249 8.1792H78.5234Z" fill="#F5F5F5"/>
<path d="M102.091 11.0095C101.629 9.33247 101.629 7.56252 102.091 5.88554C102.217 5.43665 102.375 4.99709 102.563 4.57009C102.543 4.49721 102.522 4.42481 102.5 4.35242C102.257 3.53397 101.859 2.76911 101.328 2.09887C100.807 1.45287 100.145 0.933332 99.3918 0.57964C98.6194 0.210411 97.7238 0.0257973 96.7051 0.0257973C96.1255 0.0238959 95.5476 0.0889538 94.9831 0.219666C94.4551 0.340106 93.9439 0.524442 93.461 0.768552C93.0141 0.995214 92.6022 1.2846 92.2381 1.62783C91.8959 1.9482 91.6113 2.32432 91.3965 2.73998C91.151 2.32768 90.8599 1.944 90.5285 1.59609C90.2121 1.26735 89.8504 0.984894 89.4542 0.757149C89.0365 0.520579 88.5864 0.345859 88.118 0.238508C87.5783 0.117077 87.0262 0.0585077 86.4728 0.0639773C85.8337 0.0639773 85.2748 0.126451 84.7962 0.2514C84.357 0.360132 83.9345 0.526892 83.5398 0.747231C83.1984 0.941323 82.8867 1.18292 82.614 1.4647C82.362 1.72745 82.1324 2.01055 81.9275 2.31108L81.7854 1.07151C81.7435 0.874289 81.6595 0.688307 81.5391 0.526092C81.4185 0.361972 81.2325 0.278177 80.9828 0.278177H79.6775C79.3495 0.278177 79.0755 0.331726 78.8554 0.438826C78.6354 0.545925 78.5252 0.745578 78.5249 1.03779V15.8631C78.5249 16.1121 78.5914 16.3031 78.7243 16.4363C78.8584 16.5697 79.0673 16.6347 79.3525 16.6347H81.4893C81.5916 16.6379 81.6935 16.6207 81.7891 16.5842C81.8846 16.5476 81.9719 16.4925 82.0457 16.422C82.1185 16.3513 82.1758 16.2663 82.2137 16.1724C82.2517 16.0784 82.2695 15.9777 82.266 15.8765V6.88612C82.2655 6.40036 82.3762 5.92085 82.5896 5.48391C82.7851 5.08867 83.056 4.73502 83.3873 4.44266C83.7056 4.16328 84.0719 3.94325 84.4686 3.79312C84.8486 3.6462 85.2525 3.56989 85.6602 3.56801C86.2295 3.56801 86.7214 3.67099 87.1359 3.87692C87.5315 4.06778 87.8789 4.34467 88.1524 4.68711C88.4182 5.02672 88.616 5.41384 88.7352 5.82752C88.8604 6.25167 88.9237 6.6915 88.9232 7.13354V15.7655C88.9232 16.0917 88.9794 16.3191 89.0917 16.4477C89.2034 16.5762 89.4322 16.6411 89.7777 16.6411H91.7575C92.3178 16.6411 92.5982 16.3324 92.5985 15.7149V7.13106C92.5922 6.62867 92.6778 6.12933 92.8513 5.65745C93.0057 5.23871 93.2411 4.85414 93.5443 4.52547C93.8368 4.2129 94.194 3.96711 94.5912 3.80502C95.0104 3.63508 95.4593 3.5498 95.9119 3.55414C96.4823 3.55414 96.9723 3.65495 97.3821 3.85659C97.7766 4.04626 98.1253 4.31819 98.4047 4.65389C98.68 4.99018 98.8848 5.37796 99.0069 5.7943C99.1366 6.22423 99.2022 6.67078 99.2014 7.11965V15.765C99.2014 16.0912 99.2597 16.3186 99.3763 16.4472C99.4925 16.5757 99.7253 16.6406 100.069 16.6406H102.037C102.313 16.6406 102.525 16.5609 102.672 16.4016C102.819 16.2423 102.892 16.0084 102.892 15.7V13.0042C102.552 12.3705 102.284 11.7015 102.091 11.0095Z" fill="#F5F5F5"/>
<path d="M119.903 0.637106C119.837 0.537702 119.745 0.457744 119.637 0.405551C119.518 0.347443 119.392 0.306218 119.262 0.283082C119.125 0.257287 118.986 0.244175 118.847 0.243913H117.551C117.442 0.241696 117.334 0.252685 117.228 0.276636C117.146 0.295591 117.071 0.338203 117.014 0.399108C116.952 0.4689 116.904 0.54963 116.872 0.637106C116.824 0.761518 116.783 0.888288 116.748 1.01691L116.567 2.39483C116.262 2.04012 115.924 1.71459 115.557 1.4225C115.183 1.12554 114.777 0.870776 114.346 0.662888C113.898 0.448482 113.426 0.284506 112.941 0.173999C112.423 0.0557557 111.893 -0.00264334 111.362 -3.86495e-05C110.602 -0.00248269 109.846 0.0992983 109.115 0.30242C108.406 0.499239 107.725 0.784983 107.089 1.15277C105.83 1.88007 104.784 2.92073 104.052 4.17238C103.952 4.33948 103.862 4.50906 103.776 4.68309C103.536 5.16753 103.343 5.67316 103.198 6.19339C102.792 7.66878 102.792 9.22561 103.198 10.701C103.393 11.4035 103.678 12.0784 104.045 12.7091C104.048 12.7136 104.05 12.718 104.053 12.723C104.419 13.3474 104.863 13.9229 105.374 14.4356C105.886 14.9488 106.463 15.3926 107.091 15.7555C107.727 16.1235 108.408 16.4091 109.117 16.6054C109.848 16.8085 110.604 16.9103 111.363 16.9078C111.855 16.9087 112.346 16.8548 112.826 16.7472C113.289 16.6435 113.741 16.4925 114.172 16.2965C114.589 16.1072 114.985 15.8786 115.358 15.6137C115.715 15.3605 116.05 15.0786 116.361 14.7708L116.438 15.8656C116.48 16.0644 116.561 16.2529 116.678 16.4194C116.786 16.5652 116.977 16.6386 117.254 16.6386H118.873C119.014 16.6391 119.154 16.6281 119.294 16.6059C119.418 16.5877 119.539 16.5487 119.65 16.4903C119.762 16.4329 119.854 16.3444 119.916 16.2357C119.978 16.127 120.007 16.0027 119.999 15.878V1.00501C120.004 0.875648 119.97 0.747713 119.903 0.637106ZM115.947 10.3985C115.697 10.9983 115.337 11.5465 114.885 12.0149C114.433 12.4804 113.894 12.8544 113.299 13.1162C112.681 13.3883 112.013 13.5266 111.337 13.5218C110.678 13.5284 110.026 13.3899 109.427 13.1162C108.853 12.8514 108.336 12.4773 107.906 12.0149C107.469 11.5444 107.127 10.9959 106.896 10.3985C106.413 9.14682 106.413 7.76145 106.896 6.50973C107.127 5.91239 107.47 5.36393 107.906 4.89332C108.337 4.43038 108.853 4.0543 109.427 3.78563C110.025 3.50771 110.678 3.3669 111.337 3.3736C112.013 3.36877 112.683 3.50932 113.299 3.78563C113.894 4.05136 114.432 4.42729 114.885 4.89332C115.337 5.36185 115.697 5.91001 115.947 6.50973C116.465 7.75485 116.465 9.15342 115.947 10.3985Z" fill="#F5F5F5"/>
<path d="M74.9817 9.83825H58.1272C58.0051 9.83825 57.8881 9.79003 57.8018 9.70421C57.7155 9.61838 57.667 9.50197 57.667 9.3806V7.21828C57.667 7.0969 57.7155 6.98049 57.8018 6.89467C57.8881 6.80884 58.0051 6.76062 58.1272 6.76062H74.9817V9.83825Z" fill="#F5F5F5"/>
<path d="M21.2962 20.9673C21.2951 20.9427 21.2993 20.9182 21.3086 20.8955C21.3179 20.8727 21.332 20.8522 21.35 20.8354C21.3874 20.8017 21.4366 20.7839 21.4871 20.7858H25.8489C25.8977 20.7855 25.9451 20.8016 25.9835 20.8314C26.0042 20.8477 26.021 20.8684 26.0328 20.8918C26.0446 20.9153 26.0511 20.941 26.0518 20.9673V21.6887C26.0533 21.7414 26.0356 21.7928 26.002 21.8335C25.9834 21.8543 25.9602 21.8707 25.9343 21.8814C25.9084 21.892 25.8804 21.8967 25.8524 21.895H24.277V26.7199C24.2776 26.7685 24.2598 26.8156 24.2271 26.8518C24.209 26.8712 24.1868 26.8865 24.1621 26.8964C24.1373 26.9064 24.1107 26.9108 24.0841 26.9093H23.2614C23.2114 26.9089 23.1634 26.8898 23.1268 26.8558C23.1074 26.8389 23.0919 26.818 23.0815 26.7945C23.071 26.771 23.0659 26.7456 23.0665 26.7199V21.895H21.4871C21.4621 21.8962 21.4371 21.8924 21.4135 21.8839C21.39 21.8754 21.3684 21.8623 21.35 21.8454C21.3308 21.8247 21.3161 21.8002 21.3069 21.7736C21.2976 21.747 21.294 21.7188 21.2962 21.6907V20.9673Z" fill="#F5F5F5"/>
<path d="M28.2659 20.9836C28.2659 20.8514 28.3267 20.7853 28.4484 20.7853H32.4453C32.4738 20.7825 32.5026 20.7865 32.5293 20.7969C32.556 20.8073 32.5798 20.8239 32.5988 20.8453C32.63 20.8886 32.6461 20.9408 32.6447 20.994V21.7224C32.6454 21.7712 32.6276 21.8185 32.5948 21.8548C32.5746 21.875 32.5503 21.8907 32.5234 21.9007C32.4966 21.9107 32.4679 21.9148 32.4393 21.9128H29.4884V23.1623H31.7603C31.7836 23.1584 31.8075 23.1595 31.8304 23.1656C31.8533 23.1717 31.8746 23.1826 31.8929 23.1975C31.9113 23.2169 31.9253 23.24 31.9339 23.2652C31.9425 23.2905 31.9455 23.3173 31.9427 23.3438V24.09C31.9434 24.1372 31.9289 24.1835 31.9013 24.2219C31.886 24.242 31.8658 24.2578 31.8426 24.268C31.8194 24.2781 31.794 24.2822 31.7687 24.2799H29.4884V25.7768H32.544C32.6213 25.7768 32.6726 25.7932 32.6975 25.8264C32.7259 25.8721 32.739 25.9256 32.7349 25.9791V26.7328C32.7349 26.8482 32.6741 26.906 32.5525 26.9063H28.4474C28.401 26.9076 28.3556 26.8931 28.3188 26.8652C28.2999 26.849 28.2851 26.8287 28.2758 26.8057C28.2664 26.7828 28.2627 26.758 28.2649 26.7333L28.2659 20.9836Z" fill="#F5F5F5"/>
<path d="M39.602 21.2311C39.6337 21.2493 39.6618 21.2732 39.6848 21.3015C39.7071 21.3297 39.7187 21.3648 39.7177 21.4006C39.717 21.4338 39.7087 21.4664 39.6933 21.4958L39.2909 22.1761C39.2754 22.2026 39.2537 22.225 39.2277 22.2415C39.2017 22.258 39.1721 22.268 39.1414 22.2708C39.1217 22.2703 39.1022 22.2668 39.0835 22.2604C39.0601 22.2533 39.0378 22.2429 39.0172 22.2297C38.8456 22.107 38.657 22.0098 38.4574 21.9411C38.2533 21.8714 38.0389 21.8365 37.8232 21.838C37.5563 21.8349 37.2919 21.889 37.0479 21.9966C36.8181 22.0988 36.6109 22.2452 36.4382 22.4275C36.2649 22.6128 36.1294 22.8299 36.0394 23.0666C35.9426 23.318 35.8941 23.5853 35.8963 23.8545C35.8942 24.1216 35.9427 24.3867 36.0394 24.6359C36.1298 24.8719 36.2652 25.0883 36.4382 25.2731C36.6157 25.4607 36.8305 25.6097 37.0689 25.7105C37.3073 25.8113 37.5642 25.8617 37.8232 25.8586C38.041 25.8595 38.2574 25.8246 38.4638 25.7555C38.6647 25.6878 38.8541 25.5903 39.0257 25.4664C39.0459 25.4509 39.0692 25.4398 39.094 25.4337C39.1174 25.4283 39.1374 25.4243 39.1538 25.4213C39.1834 25.4247 39.2118 25.4346 39.2369 25.4503C39.2621 25.466 39.2835 25.4871 39.2994 25.5121L39.7097 26.2008C39.725 26.2287 39.7335 26.2598 39.7346 26.2915C39.7358 26.3265 39.7231 26.3605 39.6992 26.3862C39.6746 26.412 39.6476 26.4354 39.6185 26.4561C39.3593 26.6292 39.0766 26.7646 38.7789 26.8582C38.4725 26.9542 38.1529 27.0022 37.8317 27.0005C37.5467 27.0015 37.263 26.9641 36.9881 26.8895C36.7229 26.8172 36.4684 26.7103 36.2313 26.5717C35.7629 26.2975 35.3721 25.9095 35.0956 25.4441C34.9561 25.2091 34.8486 24.9567 34.776 24.6934C34.6636 24.2872 34.6339 23.8627 34.6888 23.4448C34.7436 23.027 34.882 22.6243 35.0956 22.2604C35.2327 22.0267 35.399 21.8113 35.5907 21.6193C35.7818 21.428 35.9971 21.2623 36.2313 21.1264C36.469 20.9892 36.7234 20.8826 36.9881 20.8091C37.5721 20.6497 38.1896 20.6583 38.7689 20.8339C39.0643 20.9259 39.3449 21.0597 39.602 21.2311Z" fill="#F5F5F5"/>
<path d="M42.0892 20.9672C42.0897 20.9205 42.1074 20.8757 42.1391 20.8412C42.1551 20.8228 42.1752 20.8082 42.1977 20.7986C42.2203 20.789 42.2447 20.7846 42.2692 20.7857H43.0953C43.1447 20.7866 43.1919 20.8057 43.2279 20.8393C43.2472 20.8546 43.2628 20.8741 43.2735 20.8962C43.2842 20.9183 43.2898 20.9426 43.2897 20.9672V23.1032H46.0717V20.9672C46.071 20.9197 46.0889 20.8739 46.1215 20.8393C46.1384 20.8214 46.1589 20.8074 46.1817 20.7981C46.2045 20.7889 46.229 20.7846 46.2536 20.7857H47.0678C47.1197 20.7852 47.1701 20.8028 47.2104 20.8353C47.2299 20.8507 47.2456 20.8705 47.256 20.8931C47.2664 20.9157 47.2712 20.9404 47.2702 20.9652V26.7297C47.2702 26.8507 47.2054 26.9112 47.0758 26.9112H46.2536C46.1323 26.9112 46.0717 26.8507 46.0717 26.7297V24.2352H43.2897V26.7297C43.2897 26.8507 43.2223 26.9112 43.0873 26.9112H42.2692C42.1506 26.9112 42.0912 26.8552 42.0912 26.7421L42.0892 20.9672Z" fill="#F5F5F5"/>
<path d="M49.8592 20.9711C49.8584 20.9225 49.8762 20.8753 49.909 20.8392C49.9261 20.821 49.9471 20.8068 49.9703 20.7975C49.9936 20.7883 50.0186 20.7842 50.0437 20.7857H50.9974C51.0358 20.7856 51.0736 20.7948 51.1076 20.8125C51.1449 20.833 51.1769 20.8621 51.2008 20.8973C51.6734 21.5683 52.1419 22.2342 52.6062 22.895C53.0705 23.5557 53.539 24.2216 54.0116 24.8927V20.9424C54.0177 20.8976 54.0398 20.8566 54.074 20.8268C54.1078 20.7993 54.1504 20.7847 54.1941 20.7857H54.9918C55.0439 20.7845 55.0948 20.8021 55.1349 20.8353C55.1546 20.851 55.1703 20.8712 55.1808 20.8941C55.1913 20.917 55.1962 20.942 55.1952 20.9672V26.7386C55.1952 26.8517 55.1304 26.9077 55.0003 26.9077H54.1029C54.042 26.9077 53.9857 26.8705 53.9329 26.7967C53.4463 26.0956 52.9618 25.3951 52.4796 24.6953C51.9973 23.9955 51.5144 23.2939 51.0308 22.5905V26.7263C51.0347 26.7757 51.0189 26.8246 50.9869 26.8626C50.9663 26.8798 50.9425 26.8926 50.9168 26.9003C50.8911 26.9081 50.864 26.9106 50.8373 26.9077H50.0397C50.0144 26.9096 49.9889 26.9062 49.9651 26.8976C49.9412 26.8891 49.9194 26.8756 49.9011 26.8581C49.8703 26.822 49.8547 26.7755 49.8572 26.7282L49.8592 20.9711Z" fill="#F5F5F5"/>
<path d="M57.534 23.8539C57.5326 23.2945 57.6814 22.7449 57.9652 22.2618C58.103 22.0291 58.2694 21.8144 58.4608 21.6227C58.6516 21.4313 58.867 21.2657 59.1014 21.1303C59.3391 20.9929 59.5934 20.8861 59.8582 20.8125C60.409 20.6618 60.9905 20.6618 61.5413 20.8125C61.8061 20.8861 62.0604 20.9929 62.2981 21.1303C62.7693 21.4035 63.1615 21.7933 63.4363 22.2618C63.5744 22.4989 63.6816 22.7525 63.7554 23.0165C63.8323 23.2909 63.8707 23.5745 63.8696 23.8594C63.8708 24.1423 63.8324 24.424 63.7554 24.6964C63.6812 24.959 63.574 25.2112 63.4363 25.447C63.2999 25.6801 63.1333 25.8943 62.9407 26.0842C62.542 26.4753 62.0471 26.7556 61.5054 26.8971C60.9637 27.0385 60.3942 27.0362 59.8537 26.8904C59.0589 26.6707 58.381 26.1525 57.9632 25.4451C57.6804 24.9626 57.5322 24.4139 57.534 23.8554V23.8539ZM58.7305 23.8455C58.728 24.1126 58.7788 24.3775 58.88 24.625C58.9764 24.8597 59.1172 25.0738 59.2948 25.2556C59.4726 25.436 59.6839 25.5804 59.917 25.6806C60.1623 25.784 60.4259 25.8373 60.6923 25.8373C60.9586 25.8373 61.2223 25.784 61.4675 25.6806C61.7009 25.5798 61.9128 25.4356 62.0917 25.2556C62.2703 25.0743 62.4117 24.86 62.508 24.625C62.7099 24.1261 62.7099 23.5689 62.508 23.07C62.3145 22.5947 61.9408 22.2141 61.4675 22.0104C61.2223 21.907 60.9586 21.8538 60.6923 21.8538C60.4259 21.8538 60.1623 21.907 59.917 22.0104C59.6836 22.111 59.4722 22.256 59.2948 22.4373C58.9287 22.8153 58.7257 23.3207 58.729 23.8455H58.7305Z" fill="#F5F5F5"/>
<path d="M66.2078 20.9672C66.2071 20.9198 66.225 20.8739 66.2576 20.8393C66.2758 20.8209 66.2978 20.8065 66.3221 20.7973C66.3463 20.7881 66.3723 20.7841 66.3982 20.7858H67.2203C67.2684 20.7856 67.3148 20.8033 67.3505 20.8353C67.3693 20.852 67.3842 20.8727 67.3938 20.8959C67.4035 20.9191 67.4078 20.9442 67.4063 20.9692V25.7818H70.0018C70.0254 25.7811 70.049 25.7852 70.0711 25.7937C70.0932 25.8022 70.1133 25.815 70.1304 25.8313C70.1485 25.8494 70.1627 25.8711 70.172 25.8949C70.1812 25.9187 70.1854 25.9442 70.1842 25.9697V26.7243C70.1849 26.7724 70.167 26.8188 70.1344 26.8542C70.1178 26.8727 70.0973 26.8872 70.0743 26.8968C70.0514 26.9064 70.0266 26.9109 70.0018 26.9098H66.3897C66.2684 26.9098 66.2078 26.8493 66.2078 26.7283V20.9672Z" fill="#F5F5F5"/>
<path d="M72.0209 23.8539C72.0195 23.2945 72.1684 22.7449 72.4521 22.2618C72.5899 22.0291 72.7564 21.8144 72.9477 21.6227C73.1385 21.4313 73.354 21.2657 73.5883 21.1303C73.826 20.9929 74.0803 20.8861 74.3451 20.8125C74.8959 20.6618 75.4774 20.6618 76.0282 20.8125C76.293 20.8861 76.5473 20.9929 76.785 21.1303C77.0198 21.2661 77.2358 21.4316 77.4277 21.6227C77.6197 21.8137 77.7863 22.0285 77.9232 22.2618C78.0613 22.4989 78.1686 22.7525 78.2423 23.0165C78.3192 23.2909 78.3577 23.5745 78.3565 23.8594C78.3577 24.1423 78.3193 24.424 78.2423 24.6964C78.1682 24.959 78.061 25.2112 77.9232 25.447C77.7866 25.68 77.62 25.8942 77.4277 26.0842C77.029 26.4753 76.534 26.7556 75.9924 26.8971C75.4507 27.0385 74.8812 27.0362 74.3406 26.8904C73.6725 26.7081 73.0833 26.3121 72.6641 25.7636C72.2448 25.215 72.0188 24.5445 72.0209 23.8554V23.8539ZM73.2174 23.8455C73.2149 24.1126 73.2657 24.3775 73.367 24.625C73.4633 24.8597 73.6041 25.0738 73.7818 25.2556C73.9594 25.4359 74.1706 25.5802 74.4035 25.6806C74.6488 25.784 74.9125 25.8373 75.179 25.8373C75.4454 25.8373 75.7091 25.784 75.9545 25.6806C76.1878 25.58 76.3996 25.4357 76.5782 25.2556C76.757 25.0744 76.8986 24.8602 76.9949 24.625C77.1968 24.1261 77.1968 23.5689 76.9949 23.07C76.801 22.5949 76.4274 22.2145 75.9545 22.0104C75.7091 21.907 75.4454 21.8537 75.179 21.8537C74.9125 21.8537 74.6488 21.907 74.4035 22.0104C74.1703 22.1111 73.9591 22.2562 73.7818 22.4373C73.4157 22.8153 73.2126 23.3207 73.2159 23.8455H73.2174Z" fill="#F5F5F5"/>
<path d="M84.5175 24.3487C84.5152 24.3004 84.5316 24.253 84.5634 24.2163C84.5813 24.1989 84.6028 24.1855 84.6263 24.177C84.6499 24.1684 84.675 24.1649 84.7 24.1668H85.376C85.4246 24.1675 85.4715 24.185 85.5086 24.2163C85.5287 24.232 85.5448 24.2521 85.5557 24.2751C85.5665 24.2981 85.5717 24.3234 85.5709 24.3487V26.2428C85.5707 26.276 85.5621 26.3085 85.546 26.3375C85.5233 26.3735 85.492 26.4033 85.4548 26.4243C85.4518 26.4243 85.4503 26.4243 85.4503 26.4243C85.4503 26.4243 85.4503 26.4243 85.4463 26.4243C85.3136 26.5167 85.1736 26.5981 85.0275 26.6677C84.8764 26.7399 84.7197 26.8 84.5589 26.8472C84.3944 26.8955 84.2268 26.9326 84.0573 26.9583C83.8873 26.9844 83.7154 26.9975 83.5433 26.9975C83.2591 26.9982 82.976 26.9608 82.7018 26.8864C82.4363 26.8146 82.1818 26.7077 81.945 26.5686C81.4777 26.2934 81.0876 25.9057 80.8107 25.441C80.6714 25.206 80.5641 24.9536 80.4917 24.6904C80.3794 24.2852 80.3497 23.8617 80.4045 23.445C80.4593 23.0282 80.5975 22.6266 80.8107 22.2638C80.9484 22.0309 81.1149 21.8162 81.3063 21.6246C81.4974 21.4325 81.7128 21.2659 81.947 21.1288C82.1844 20.9904 82.4387 20.8829 82.7038 20.809C82.9784 20.7329 83.2622 20.6949 83.5473 20.6959C83.744 20.6954 83.9403 20.712 84.1341 20.7455C84.3271 20.7797 84.5165 20.8315 84.7 20.9002C84.7691 20.928 84.8513 20.9624 84.9467 21.0034C85.0399 21.0435 85.1306 21.089 85.2185 21.1397C85.2958 21.1832 85.3686 21.2342 85.4358 21.2919C85.4608 21.3096 85.4816 21.3324 85.497 21.3587C85.5124 21.3851 85.522 21.4143 85.5251 21.4446C85.5201 21.4819 85.5073 21.5177 85.4877 21.5498C85.4627 21.5993 85.4318 21.6524 85.3945 21.7129C85.3571 21.7734 85.3152 21.8359 85.2678 21.9003C85.2205 21.9648 85.1756 22.0233 85.1312 22.0753C85.0868 22.1274 85.0469 22.171 85.0111 22.2057C84.9897 22.2309 84.9606 22.2484 84.9283 22.2553C84.9078 22.2549 84.8875 22.2516 84.868 22.2454C84.8415 22.237 84.8168 22.2237 84.7952 22.2062C84.6142 22.0819 84.4158 21.9846 84.2064 21.9177C83.9913 21.8464 83.766 21.8101 83.5393 21.8101C83.269 21.807 83.001 21.8596 82.7521 21.9647C82.5033 22.0697 82.2791 22.2249 82.0935 22.4204C81.7299 22.8075 81.5283 23.3178 81.5297 23.8474C81.5279 24.1187 81.5822 24.3873 81.6892 24.6368C81.7912 24.8766 81.9374 25.0952 82.1204 25.2814C82.3029 25.4648 82.519 25.6117 82.7571 25.7143C83.0016 25.8202 83.2656 25.8743 83.5324 25.8729C83.6337 25.8731 83.7348 25.8654 83.835 25.8501C83.9292 25.8363 84.0226 25.8171 84.1147 25.7926C84.1944 25.7717 84.2727 25.7456 84.349 25.7143C84.4079 25.6906 84.4647 25.6623 84.519 25.6295L84.5175 24.3487Z" fill="#F5F5F5"/>
<path d="M88.1042 20.9672C88.1031 20.9205 88.1192 20.875 88.1495 20.8393C88.1667 20.8207 88.1879 20.8063 88.2114 20.797C88.235 20.7878 88.2604 20.7839 88.2857 20.7857H89.1083C89.1568 20.7863 89.2036 20.8038 89.2404 20.8353C89.2605 20.8508 89.2765 20.8709 89.2873 20.8938C89.298 20.9168 89.3031 20.9419 89.3022 20.9672V26.7278C89.3022 26.8487 89.2376 26.9092 89.1083 26.9092H88.2857C88.1643 26.9092 88.1038 26.8487 88.1042 26.7278V20.9672Z" fill="#F5F5F5"/>
<path d="M91.8937 20.9836C91.8937 20.8514 91.9545 20.7853 92.0761 20.7853H96.073C96.1016 20.7825 96.1304 20.7865 96.1571 20.7969C96.1838 20.8073 96.2076 20.8239 96.2266 20.8453C96.2576 20.8886 96.2736 20.9408 96.272 20.994V21.7224C96.2729 21.7712 96.2551 21.8186 96.2221 21.8548C96.2021 21.8751 96.1778 21.8908 96.151 21.9008C96.1242 21.9109 96.0956 21.9149 96.0671 21.9128H93.1186V23.1623H95.391C95.4144 23.1584 95.4383 23.1595 95.4612 23.1656C95.484 23.1717 95.5053 23.1825 95.5236 23.1975C95.5421 23.2168 95.5561 23.2399 95.5647 23.2652C95.5733 23.2904 95.5763 23.3173 95.5735 23.3438V24.09C95.5742 24.1372 95.5597 24.1834 95.5321 24.2219C95.5166 24.2418 95.4964 24.2575 95.4732 24.2676C95.45 24.2777 95.4247 24.282 95.3995 24.2799H93.1186V25.7768H96.1747C96.252 25.7768 96.3034 25.7932 96.3278 25.8264C96.3562 25.8721 96.3693 25.9256 96.3652 25.9791V26.7328C96.3652 26.8481 96.3044 26.906 96.1827 26.9063H92.0781C92.0318 26.9076 91.9864 26.8931 91.9495 26.8652C91.9306 26.849 91.9159 26.8286 91.9066 26.8057C91.8972 26.7828 91.8935 26.7579 91.8957 26.7333L91.8937 20.9836Z" fill="#F5F5F5"/>
<path d="M102.101 22.4186C102.066 22.4192 102.032 22.4099 102.002 22.3918C101.966 22.3702 101.931 22.3462 101.898 22.3199L101.89 22.3159C101.826 22.2538 101.758 22.1958 101.687 22.1424C101.599 22.0764 101.506 22.0172 101.409 21.9654C101.303 21.9091 101.193 21.8621 101.079 21.8251C100.963 21.7868 100.842 21.7674 100.721 21.7675C100.582 21.7649 100.444 21.7815 100.31 21.8171C100.203 21.846 100.102 21.8935 100.011 21.9574C99.9349 22.012 99.8725 22.0832 99.8286 22.1657C99.7873 22.2447 99.7659 22.3325 99.7663 22.4215C99.7648 22.5165 99.7979 22.6088 99.8595 22.6814C99.9308 22.7626 100.017 22.8299 100.113 22.8797C100.231 22.9424 100.353 22.9954 100.48 23.0384C100.618 23.0863 100.763 23.1337 100.915 23.1807C101.089 23.2329 101.262 23.2893 101.433 23.3497C101.601 23.4085 101.765 23.4767 101.925 23.554C102.076 23.6269 102.222 23.7109 102.362 23.8054C102.493 23.894 102.61 24.0009 102.711 24.1227C102.809 24.243 102.887 24.3781 102.943 24.5229C103.001 24.6816 103.03 24.8497 103.028 25.0187C103.032 25.3001 102.969 25.5785 102.845 25.8314C102.725 26.0721 102.553 26.2838 102.342 26.4517C102.117 26.6293 101.861 26.7639 101.587 26.8483C101.286 26.942 100.972 26.9885 100.656 26.9862C100.443 26.986 100.23 26.9612 100.022 26.9123C99.8135 26.8632 99.6106 26.7926 99.4168 26.7016C99.2234 26.6109 99.0396 26.5011 98.8684 26.3738C98.698 26.2484 98.5427 26.1038 98.4057 25.9429V25.9469L98.3977 25.9305C98.3452 25.8805 98.3128 25.8132 98.3065 25.7411C98.3064 25.7105 98.3151 25.6804 98.3314 25.6544C98.3526 25.6214 98.3775 25.5909 98.4057 25.5636L98.5428 25.4278C98.5842 25.3921 98.6286 25.3519 98.6754 25.3078C98.7204 25.2656 98.7675 25.2257 98.8165 25.1883C98.8634 25.1526 98.9068 25.1223 98.9472 25.0975C98.9764 25.0764 99.0109 25.0635 99.0469 25.0604C99.0859 25.0604 99.1239 25.0735 99.1546 25.0975C99.184 25.119 99.2118 25.1425 99.2378 25.168L99.2543 25.1843H99.2503C99.3519 25.2789 99.4606 25.3658 99.5753 25.4441C99.6942 25.5256 99.8183 25.5993 99.9468 25.6648C100.068 25.7271 100.195 25.7782 100.326 25.8175C100.441 25.8527 100.56 25.8714 100.681 25.873C100.825 25.8741 100.969 25.8545 101.107 25.815C101.231 25.7811 101.347 25.7261 101.452 25.6524C101.545 25.5857 101.623 25.4996 101.679 25.4C101.735 25.2991 101.763 25.1855 101.761 25.0703C101.764 24.957 101.726 24.8466 101.654 24.7589C101.575 24.6666 101.479 24.5898 101.372 24.5323C101.247 24.4638 101.116 24.4078 100.98 24.3652C100.835 24.3186 100.689 24.2746 100.543 24.2333C100.24 24.1446 99.9443 24.0344 99.6576 23.9036C99.4292 23.8013 99.2162 23.6678 99.0249 23.5069C98.8646 23.3703 98.7354 23.2013 98.646 23.0111C98.5591 22.8173 98.5159 22.6069 98.5194 22.3948C98.5155 22.1561 98.5675 21.9199 98.6714 21.7047C98.7752 21.4896 98.928 21.3014 99.1177 21.1552C99.3238 20.9977 99.5571 20.8791 99.8062 20.8051C100.098 20.7178 100.401 20.6754 100.706 20.6792C100.966 20.6805 101.224 20.7201 101.473 20.7967C101.727 20.8724 101.969 20.9813 102.194 21.1205C102.261 21.1615 102.328 21.2082 102.398 21.2608C102.466 21.3104 102.53 21.3659 102.588 21.4195C102.641 21.4669 102.689 21.5194 102.731 21.5762C102.761 21.606 102.78 21.6447 102.786 21.6864C102.791 21.7281 102.783 21.7705 102.763 21.8072C102.746 21.8408 102.725 21.872 102.7 21.8999L102.576 22.0318V22.0283L102.447 22.1647C102.406 22.2091 102.361 22.2512 102.314 22.2906C102.271 22.3273 102.23 22.3586 102.194 22.3834C102.168 22.404 102.135 22.4163 102.101 22.4186Z" fill="#F5F5F5"/>
</g>
<defs>
<clipPath id="clip0_97_985">
<rect width="120" height="27" fill="white"/>
</clipPath>
</defs>
</svg>
